<svg width="52" height="52" viewBox="0 0 52 52" fill="none" xmlns="http://www.w3.org/2000/svg">
<g filter="url(#filter0_d_80_2992)">
<rect width="48" height="48" rx="24" fill="#F4F2F5" shape-rendering="crispEdges"/>
<path d="M28.9014 31H18.7192V29.0518L23.5488 23.8633C23.9248 23.4531 24.2427 23.0806 24.5024 22.7456C24.7622 22.4106 24.9741 22.103 25.1382 21.8228C25.2954 21.5493 25.4082 21.293 25.4766 21.0537C25.5518 20.8145 25.5894 20.582 25.5894 20.3564C25.5894 20.0215 25.5415 19.7241 25.4458 19.4644C25.3501 19.2046 25.2168 18.9824 25.0459 18.7979C24.8682 18.6201 24.6562 18.4834 24.4102 18.3877C24.1709 18.292 23.9043 18.2441 23.6104 18.2441C23.2275 18.2441 22.8892 18.2988 22.5952 18.4082C22.3081 18.5107 22.0688 18.6646 21.8774 18.8696C21.6792 19.0815 21.5288 19.3447 21.4263 19.6592C21.3237 19.9736 21.2725 20.3325 21.2725 20.7358H18.4116C18.4116 20.0728 18.5381 19.4473 18.791 18.8594C19.0439 18.2646 19.4028 17.7451 19.8677 17.3008C20.3257 16.8564 20.8794 16.5078 21.5288 16.2549C22.1851 15.9951 22.9097 15.8652 23.7026 15.8652C24.4614 15.8652 25.1313 15.9712 25.7124 16.1831C26.3003 16.395 26.7925 16.6924 27.189 17.0752C27.5786 17.458 27.876 17.9194 28.0811 18.4595C28.2861 18.9927 28.3887 19.584 28.3887 20.2334C28.3887 20.7256 28.3101 21.1973 28.1528 21.6484C28.0024 22.0928 27.7871 22.5337 27.5068 22.9712C27.2197 23.4087 26.8779 23.8564 26.4814 24.3145C26.085 24.7656 25.644 25.2407 25.1587 25.7397L22.3491 28.7134H28.9014V31Z" fill="#292929"/>
<circle cx="24" cy="24" r="18.5" stroke="black"/>
<rect x="0.5" y="0.5" width="47" height="47" rx="23.5" stroke="black" shape-rendering="crispEdges"/>
</g>
<defs>
<filter id="filter0_d_80_2992" x="0" y="0" width="52" height="52" filterUnits="userSpaceOnUse" color-interpolation-filters="sRGB">
<feFlood flood-opacity="0" result="BackgroundImageFix"/>
<feColorMatrix in="SourceAlpha" type="matrix" values="0 0 0 0 0 0 0 0 0 0 0 0 0 0 0 0 0 0 127 0" result="hardAlpha"/>
<feOffset dx="4" dy="4"/>
<feComposite in2="hardAlpha" operator="out"/>
<feColorMatrix type="matrix" values="0 0 0 0 0 0 0 0 0 0 0 0 0 0 0 0 0 0 1 0"/>
<feBlend mode="normal" in2="BackgroundImageFix" result="effect1_dropShadow_80_2992"/>
<feBlend mode="normal" in="SourceGraphic" in2="effect1_dropShadow_80_2992" result="shape"/>
</filter>
</defs>
</svg>
