<svg width="52" height="52" viewBox="0 0 52 52" fill="none" xmlns="http://www.w3.org/2000/svg">
<g filter="url(#filter0_d_80_2994)">
<rect width="48" height="48" rx="24" fill="#F8B087" shape-rendering="crispEdges"/>
<path d="M22.0107 22.2842H23.5591C23.9692 22.2842 24.3213 22.2295 24.6152 22.1201C24.916 22.0039 25.1587 21.8433 25.3433 21.6382C25.5142 21.4604 25.6406 21.2451 25.7227 20.9922C25.8115 20.7324 25.856 20.4521 25.856 20.1514C25.856 19.8574 25.8115 19.5908 25.7227 19.3516C25.6406 19.1055 25.5142 18.8936 25.3433 18.7158C25.1724 18.5449 24.9536 18.4116 24.687 18.3159C24.4272 18.2202 24.123 18.1724 23.7744 18.1724C23.4873 18.1724 23.2173 18.2134 22.9644 18.2954C22.7183 18.3774 22.5029 18.4937 22.3184 18.644C22.127 18.8013 21.9766 18.9893 21.8672 19.208C21.7578 19.4268 21.7031 19.6729 21.7031 19.9463H18.8525C18.8525 19.3379 18.9756 18.7842 19.2217 18.2852C19.4746 17.7861 19.8198 17.3555 20.2573 16.9932C20.6948 16.6377 21.2075 16.3608 21.7954 16.1626C22.3901 15.9644 23.0293 15.8652 23.7129 15.8652C24.4512 15.8652 25.1279 15.9575 25.7432 16.1421C26.3584 16.3198 26.8848 16.5864 27.3223 16.9419C27.7598 17.3042 28.0981 17.752 28.3374 18.2852C28.5835 18.8115 28.7065 19.4233 28.7065 20.1206C28.7065 20.4419 28.6587 20.7598 28.563 21.0742C28.4673 21.3818 28.3271 21.6758 28.1426 21.9561C27.958 22.2363 27.729 22.4961 27.4556 22.7354C27.1821 22.9678 26.8677 23.1694 26.5122 23.3403C26.9292 23.4907 27.2881 23.6821 27.5889 23.9146C27.8965 24.147 28.1494 24.4102 28.3477 24.7041C28.5459 25.0049 28.6929 25.333 28.7886 25.6885C28.8843 26.0439 28.9321 26.4199 28.9321 26.8164C28.9321 27.5137 28.7988 28.1357 28.5322 28.6826C28.2656 29.2295 27.8999 29.6875 27.4351 30.0566C26.9702 30.4326 26.4165 30.7197 25.7739 30.918C25.1382 31.1094 24.4512 31.2051 23.7129 31.2051C23.0771 31.2051 22.4551 31.1196 21.8467 30.9487C21.2451 30.771 20.7085 30.5044 20.2368 30.1489C19.7651 29.8003 19.3857 29.3594 19.0986 28.8262C18.8184 28.293 18.6782 27.6641 18.6782 26.9395H21.5288C21.5288 27.2266 21.5835 27.4932 21.6929 27.7393C21.8022 27.9785 21.9595 28.1836 22.1646 28.3545C22.3628 28.5322 22.5986 28.6724 22.8721 28.7749C23.1455 28.8706 23.4463 28.9185 23.7744 28.9185C24.1436 28.9185 24.4751 28.8672 24.769 28.7646C25.063 28.6621 25.3091 28.5117 25.5073 28.3135C25.6987 28.1357 25.8423 27.917 25.938 27.6572C26.0405 27.3975 26.0918 27.1069 26.0918 26.7856C26.0918 26.3823 26.0337 26.0371 25.9175 25.75C25.8013 25.4629 25.6338 25.2271 25.415 25.0425C25.1895 24.8579 24.9194 24.7212 24.605 24.6323C24.2974 24.5435 23.9487 24.499 23.5591 24.499H22.0107V22.2842Z" fill="#292929"/>
<circle cx="24" cy="24" r="18.5" stroke="black"/>
<rect x="0.5" y="0.5" width="47" height="47" rx="23.5" stroke="black" shape-rendering="crispEdges"/>
</g>
<defs>
<filter id="filter0_d_80_2994" x="0" y="0" width="52" height="52" filterUnits="userSpaceOnUse" color-interpolation-filters="sRGB">
<feFlood flood-opacity="0" result="BackgroundImageFix"/>
<feColorMatrix in="SourceAlpha" type="matrix" values="0 0 0 0 0 0 0 0 0 0 0 0 0 0 0 0 0 0 127 0" result="hardAlpha"/>
<feOffset dx="4" dy="4"/>
<feComposite in2="hardAlpha" operator="out"/>
<feColorMatrix type="matrix" values="0 0 0 0 0 0 0 0 0 0 0 0 0 0 0 0 0 0 1 0"/>
<feBlend mode="normal" in2="BackgroundImageFix" result="effect1_dropShadow_80_2994"/>
<feBlend mode="normal" in="SourceGraphic" in2="effect1_dropShadow_80_2994" result="shape"/>
</filter>
</defs>
</svg>
